<svg version="1.1" xmlns="http://www.w3.org/2000/svg" viewBox="0 0 4997.526494691585 4157.1785714285725" width="4997.526494691585" height="4157.1785714285725">
  <!-- svg-source:excalidraw -->
  
  <defs>
    <style>
      @font-face {
        font-family: "Virgil";
        src: url("https://excalidraw.com/Virgil.woff2");
      }
      @font-face {
        font-family: "Cascadia";
        src: url("https://excalidraw.com/Cascadia.woff2");
      }
    </style>
  </defs>
  <rect x="0" y="0" width="4997.526494691585" height="4157.1785714285725" fill="#ffffff"></rect><g stroke-linecap="round" transform="translate(10 9.999999999999773) rotate(0 1635.1488095238092 2068.5892857142862)"><path d="M-0.6749214798212052 0.0652475506067276 C1063.4660675329333 -6.314428850313914, 2125.2401955837736 -6.00531983008076, 3269.5362259148123 0.39208633005619054 M0.028286035358905795 -0.20478719025850298 C981.0953870973904 -6.344776865768112, 1961.8666461794414 -6.001601120757735, 3270.444956491745 0.12576543539762497 M3270.230028557635 -0.26054199635982517 C3280.546324917469 852.1128693666444, 3280.5687817541693 1702.8947920821877, 3270.971324848986 4137.631309251701 M3270.119533441818 -0.37027757912874226 C3278.7824215420874 1090.100496750578, 3278.452332497516 2179.8396472399527, 3270.1540221674804 4136.813570291018 M3269.831753468371 4137.381195573723 C2101.1634851441977 4141.158115833447, 931.4765980456109 4141.1147285157895, -0.3617427498102188 4137.8942953395 M3269.9286845667725 4137.1422465147725 C2326.607137023502 4142.7244208843795, 1382.7984389065007 4142.22533893896, 0.21736851483583453 4136.97415106914 M0.03796809613704682 4137.936540059959 C10.614529464749888 3284.6650063514053, 10.424931858090952 2431.48186680789, -0.0006489425897598267 0.6748922497034073 M0.049538238346576696 4137.2388746561755 C15.280926611769948 2832.3066796346043, 15.338651898253714 1527.1951068664503, 0.26934495717287066 -0.04957230836153031" stroke="#000000" stroke-width="4" fill="none"></path></g><g stroke-linecap="round" transform="translate(98.6642368861605 96.50473749069943) rotate(0 172.5 98.33333333333331)"><path d="M1.1198782324790955 1.6421599984169006 L345.70528358221054 0.7437968850135803 L344.81943649053574 196.68550131718314 L1.1674150824546814 196.96011183659232" stroke="none" stroke-width="0" fill="#fa5252"></path><path d="M-0.3340159433603287 -0.4939059464254379 C127.28289217154884 0.10769677952010659, 256.72523966048146 -1.3461183967799422, 344.6295683330984 0.6282389934244156 M0.1926906431660652 -0.23940373086595534 C96.6225211928382 0.27616107840921866, 191.73688065706114 0.22339073613932123, 345.0824773001027 -0.06407074205064774 M343.63294368982315 -1.1751485466957092 C341.76588948468367 55.10002953807513, 344.2733491251866 112.04653330643971, 345.98149448633194 198.38701639572776 M344.3581473529339 -0.8691265285015106 C343.930675855279 48.22973106304804, 343.84547936022284 98.89380471905072, 345.7675969302654 197.33808750907576 M345.3541574840689 197.77979615511668 C235.9096293424263 197.32449459982695, 127.62453826230714 197.7385876950113, 0.7838951648244857 197.67592790941967 M344.3698143205647 196.46221464756215 C255.3085777698245 198.75946678271296, 166.06715978988504 198.89838907032586, -0.36983077152204513 196.0194785260259 M-0.40747302770614624 195.53614626328147 C-0.0839152087767916 120.58517993489899, -1.177651857336362 43.50475804011026, -0.4875110983848572 -0.6482301354408264 M-0.8616650402545929 197.23350853721297 C1.9204581628243125 124.3259185949961, 2.34777387479941 53.66518534223235, 0.8978211581707001 0.7251260578632355" stroke="#000000" stroke-width="4" fill="none"></path></g><g transform="translate(412.8309035528272 424.17140415736606) rotate(0 2.5 13)"><text x="2.5" y="18" font-family="Virgil, Segoe UI Emoji" font-size="20px" fill="#495057" text-anchor="middle" style="white-space: pre;" direction="ltr">l</text></g><g transform="translate(387.8309035528272 409.17140415736606) rotate(0 7.5 13)"><text x="7.5" y="18" font-family="Virgil, Segoe UI Emoji" font-size="20px" fill="#495057" text-anchor="middle" style="white-space: pre;" direction="ltr">O</text></g><g transform="translate(152.49757021949387 140.17140415736594) rotate(0 125 56.25)"><text x="125" y="78.5" font-family="Virgil, Segoe UI Emoji" font-size="88.47780126849887px" fill="#000000" text-anchor="middle" style="white-space: pre;" direction="ltr">LOGO</text></g><g stroke-linecap="round" transform="translate(1433.6642368861606 103.17140415736594) rotate(0 192.5000000000001 74.16666666666669)"><path d="M-1.836130678653717 0.13601070642471313 L386.37280982732784 -1.0968250632286072 L384.15737289190304 149.8801983793577 L0.7226366400718689 146.72658624251687" stroke="none" stroke-width="0" fill="#12b886"></path><path d="M-0.8726194030914304 0.8479933735504148 C143.9491910471068 -1.0119958594623568, 285.20718673168005 -0.4244139537006383, 384.92459096556104 -0.4478694091644286 M-0.5881417597579954 0.2777227217941283 C145.07231629262262 0.7790279856723784, 290.30392135281573 1.131838583572769, 385.2913714660722 -0.28674523450469963 M384.0799193978311 -1.2107473015785217 C384.88216108133406 44.58840459088486, 384.258273065587 88.605757166942, 386.53442722558987 148.66993977626169 M385.5007483661176 -0.37561914324760437 C384.33121322145075 47.42587283750377, 384.2218468045196 93.14414338270826, 384.08768817782413 148.1293650766214 M385.5783929514009 148.3972183992666 C260.2346357688418 147.20454628992098, 136.05305882065775 145.6438370394327, 0.5558482888031004 148.71725014780176 M384.52710469580853 148.11584870112358 C260.1819683792067 149.81263692559983, 136.13247757041742 149.14524935162524, 0.02786668726348876 148.15141022919977 M-0.8970207571983337 148.2443626125654 C2.5364396606882416 94.34559657673043, -0.7198946441213288 42.864249974489226, -1.9648517966270447 -1.361074984073639 M0.6476351916790009 148.33167087038362 C0.34401261260112137 107.8096858908733, 1.512783402701219 66.3861201008161, -0.11851337552070618 -0.7591497600078583" stroke="#000000" stroke-width="1" fill="none"></path></g><g stroke-linecap="round" transform="translate(1881.997570219494 111.50473749069943) rotate(0 197.5000000000001 70)"><path d="M-1.5433258414268494 -1.8816915154457092 L395.86885792017006 0.6406645178794861 L396.516942560673 140.33434623479843 L-0.7729000449180603 139.34193176031113" stroke="none" stroke-width="0" fill="#12b886"></path><path d="M0.5663249191205497 -0.5573331319234367 C116.18565616752512 -1.3293044837783274, 232.33133293912306 -1.7537701355193551, 394.30388326045227 0.009777280040979379 M0.4411079322491881 0.09676560057437412 C135.82947011355134 -1.7818780361896809, 271.8229769961474 -1.045466620658523, 394.7840385248283 0.2807679760740993 M393.17537635564827 -0.4079365134239197 C396.0271183431151 50.21063852310181, 393.95712818503404 98.45378631353378, 395.1079840064051 140.49597316980362 M395.46977117657684 0.3244645297527313 C396.61241519451164 50.60202673077583, 396.96642577648186 98.89298614859581, 394.6323888599875 139.0426604449749 M395.0541631602554 139.64640467845558 C266.7940520869759 137.07098368761754, 136.37195545876486 137.5181341506226, -0.051153537964105565 140.7441769346583 M394.43515619461664 139.60872633002842 C296.50792473993044 140.3007072129507, 198.39191565060068 140.90282138751505, -0.0009558297480344765 139.85698223262776 M-0.23702675104141235 138.48170047998428 C-3.1241611182689666 89.2498289346695, 0.08477938771247873 37.130811393260956, -0.8426271080970764 1.5468650460243225 M0.6655052006244659 140.6015393435955 C2.030377662181854 93.79950013756752, 1.548633849620819 46.48546752333641, -0.4916402995586395 0.03110000491142273" stroke="#000000" stroke-width="1" fill="none"></path></g><g stroke-linecap="round" transform="translate(2763.664236886161 123.17140415736594) rotate(0 180 67.5)"><path d="M1.8678297400474548 -1.9906181693077087 L358.8703493475914 -1.366642415523529 L358.8039602637291 136.96589046716693 L-0.5012593865394592 134.7081523537636" stroke="none" stroke-width="0" fill="#12b886"></path><path d="M0.25778673747384545 0.8202765999952554 C83.49854465765131 0.5959946203654287, 167.80522836042155 2.076326977524089, 360.4680441927923 -0.15010572306001185 M0.4346906221545338 -0.34730197849589584 C80.40379666432791 0.334763371556294, 161.5700351130565 -0.6638058362893937, 360.2251899144233 0.4214551264826655 M360.84782177209854 1.2047609686851501 C360.2393532440066 48.682981148362174, 359.67930800169705 95.35987076163295, 360.86885792016983 135.64066451787951 M359.67096588015556 -0.8059990108013153 C359.8474333181977 50.21477253735067, 359.7539970770478 100.69333827495578, 360.61819621920586 135.9496972858906 M359.3237754065946 135.05623572958055 C220.86779451196801 134.0516359666933, 84.89521157962167 133.51437416931094, -1.160401725245118 134.12844869290223 M360.27163778887586 134.40779082750007 C257.6172927023719 135.47680460679894, 154.9565892450793 135.58041742348937, -0.47440118582314245 134.80211913108704 M-0.3300461173057556 135.34387153387073 C-1.9476784154772762 80.2983324378729, -2.9604824468493467 30.400681525468826, -1.2922863364219666 0.04625457525253296 M0.4398009479045868 134.63155630230906 C-0.0865914359688762 89.81372569501403, -0.6792342200875285 44.7603299021721, 0.7019116580486298 -0.022354334592819214" stroke="#000000" stroke-width="1" fill="none"></path></g><g transform="translate(1523.0845470862846 151.50474766322532) rotate(0 81.05797101449275 39.666666666666686)"><text x="81.05797101449272" y="55.33333333333333" font-family="Virgil, Segoe UI Emoji" font-size="62.086956521739104px" fill="#000000" text-anchor="middle" style="white-space: pre;" direction="ltr">HOME</text></g><g stroke-linecap="round" transform="translate(2342.330923897879 115.8380809965588) rotate(0 179.9999999999999 70)"><path d="M0.34492820501327515 -1.970615804195404 L360.40451568365097 -1.6234344840049744 L359.1940225958824 138.66472584009173 L0.9810270667076111 139.15753704309466" stroke="none" stroke-width="0" fill="#12b886"></path><path d="M-1.0605521122385262 0.9292301340948342 C111.99485114155709 -1.8867549427052497, 224.24477057247674 -2.9442435634518622, 360.58059001312387 -1.044692497676253 M0.31729811436301464 -0.3579175829175114 C78.31247558335525 2.1654316920393106, 156.11514323038702 1.794137987794697, 360.57018044953946 0.5709197203642725 M358.44399601221085 -1.8684945702552795 C361.05278916954995 30.79644918441773, 361.01087136864663 62.89639049768449, 360.5819144845009 141.59408134222033 M360.2369687259197 0.717368870973587 C359.83462116718295 40.86093875765801, 358.8781172990799 82.76601377129556, 359.81374618411064 139.34205320477488 M360.80226934423575 139.63804360523287 C242.08811945852028 139.36004545631275, 125.49001217961633 137.5589560013376, -0.8460114534975289 138.99555222077623 M359.948806127642 139.90255940581773 C218.08572167157013 141.14445878465042, 74.70789549119407 141.7331051322857, -0.20497669868057963 140.03024198973915 M0.4911037087440491 138.0671247839928 C-1.0966952621936796 110.49081933498385, 1.8344093978405 79.92373019456865, -0.07691043615341187 -0.5436635613441467 M-0.816644936800003 139.73225572705272 C-0.4626829981803895 93.00363525748254, 0.08746596574783316 45.530660539865494, 0.09259101748466492 -0.5389949977397919" stroke="#000000" stroke-width="1" fill="none"></path></g><g transform="translate(1976.1642572312123 157.11996019118988) rotate(0 113.99275362318815 35.19239373601778)"><text x="113.99275362318812" y="50.38478747203558" font-family="Virgil, Segoe UI Emoji" font-size="55.08374671724521px" fill="#000000" text-anchor="middle" style="white-space: pre;" direction="ltr">ABOUT </text></g><g transform="translate(2784.6859963616466 139.8380809965588) rotate(0 147.5 35)"><text x="147.5" y="50" font-family="Virgil, Segoe UI Emoji" font-size="55.32065217391292px" fill="#000000" text-anchor="middle" style="white-space: pre;" direction="ltr">CONTACT</text></g><g transform="translate(2408.6642572312126 154.8380809965588) rotate(0 112.86956521739148 33.71428571428578)"><text x="112.8695652173914" y="47.428571428571516" font-family="Virgil, Segoe UI Emoji" font-size="52.77018633540375px" fill="#000000" text-anchor="middle" style="white-space: pre;" direction="ltr">SKILLES</text></g><g stroke-linecap="round" transform="translate(22.33092389788044 380.8380809965588) rotate(359.99999999999994 1633.333333333333 458.3333333333336)"><path d="M0.3894839882850647 0.7815985083580017 L3267.2082636157666 -0.573669970035553 L3267.0435430804882 916.8680382768318 L0.40899425745010376 915.2284680406258" stroke="none" stroke-width="0" fill="#ced4da"></path><path d="M-0.3158540964126587 -0.19308793544769287 C947.5679810047149 -10.565015141169226, 1896.02659637928 -10.324506870905555, 3266.4365509430563 -0.7160943746566772 M-0.30898178815841676 0.34010380506515503 C902.130827875932 11.367669896284735, 1803.5935989658037 11.024790028731024, 3266.746071795622 0.16497982740402223 M3267.1732269684467 -0.6276727437973023 C3267.8200347363945 214.97721644043938, 3269.1495826184746 431.6858409762385, 3266.943901864687 916.6869103352234 M3266.5415521423015 -0.2032055974006653 C3266.2998168726754 227.0630882640681, 3266.440578820307 454.50153788725567, 3266.5415723601973 916.6393991033242 M3267.1768669525777 917.3446679035828 C2476.380315176645 925.8573513348903, 1687.0382311741507 925.7151935895289, -0.7568445444107056 917.4236634174988 M3266.674845675627 916.2756082097694 C2209.035475210348 920.9183385968213, 1151.2917224208513 920.63905736208, 0.3374106526374817 916.6162801305459 M-0.3213403940200806 917.2445069233581 C-1.8441177308559427 690.1448852002625, -1.9389350831508645 461.9943113287293, 0.6262387990951539 0.3730711221694947 M-0.19464806318283082 916.8100087682411 C3.2329330265522023 582.2540228545669, 2.944861966371538 248.23503645261144, 0.19387313127517702 0.04991978406906128" stroke="#000000" stroke-width="4" fill="none"></path></g><g stroke-linecap="round" transform="translate(1877.3309238978793 469.1714143298922) rotate(0 608.3333333333331 330.00000000000006)"><path d="M-1.6735252737998962 1.2615084052085876 L1214.9388944904008 -1.290720522403717 L1216.2963297168412 659.4650949835778 L-0.4000477194786072 661.296533048153" stroke="none" stroke-width="0" fill="#12b886"></path><path d="M0.36851708889007573 -0.11160218715667725 C353.0109064996242 5.273371082544327, 705.3241699337958 5.058679157495498, 1215.876757089297 -0.12520921230316162 M0.022276222705841064 0.09554623365402222 C247.41691706379254 -3.7887383242448167, 494.29272245566045 -3.2256977816422774, 1216.4800763885178 0.30068348646163945 M1216.6237846771874 0.4434858560562134 C1216.7488183776536 180.30430201292043, 1216.9956758300461 359.8352597713472, 1217.2713882843652 660.1172079324723 M1216.4938184539476 -0.35607615709304813 C1214.7159276596703 209.65457165241247, 1215.2603395096457 419.64792209863674, 1217.0422883788742 659.6356699824335 M1216.4709549347558 660.7989889383317 C904.6712554196515 664.1226166665555, 592.1721174279847 663.0111962258817, -0.2897341012954712 659.8451963663102 M1216.865698413054 660.2614298701287 C931.9744581202665 663.3492220421633, 646.8620386282602 663.2953924675784, 0.1349162220954895 659.7409567713738 M0.6686216115951539 659.8338133096696 C-1.0195213723182683 507.9148405671121, -1.80796665430069 355.561321926117, 0.4603170156478882 0.7626623392105103 M-0.135130774974823 660.3023611903192 C1.2558761692047122 456.0441135883332, 1.5144237613677982 251.50841237306594, -0.36925362348556523 -0.24165927171707155" stroke="#000000" stroke-width="4" fill="none"></path></g><g stroke-linecap="round" transform="translate(227.33092389787907 602.5047476632253) rotate(0 514.1666666666667 216.66666666666669)"><path d="M-0.41545718908309937 1.4660257697105408 L1026.863263030847 -1.763571321964264 L1026.98205079635 433.57399060328805 L0.7670779824256897 432.95462300380075" stroke="none" stroke-width="0" fill="#12b886"></path><path d="M-0.4833185434341431 -0.6694101095199585 C395.27289642989643 3.1060492243369424, 789.0202979266645 3.6490233149131144, 1028.1193713267646 -0.1600190877914429 M0.39925605058670044 -0.3111821293830872 C374.890840108196 -3.2005955590804422, 749.9909324665866 -2.688653649290403, 1027.9453781565032 0.21565922498703005 M1027.6104953058411 0.6084789141672848 C1027.7969719566058 96.3089248061605, 1026.8978014290142 191.27451222732853, 1028.0521728441597 432.9853844262841 M1028.1459374348663 -0.13161490651887653 C1027.5604525526514 105.86650248377744, 1026.9992448090316 211.88743701280666, 1028.0468810497098 433.0721745310568 M1028.6015086253485 432.8228541930517 C663.0439162284135 434.67865967293585, 296.80719785491624 435.278030247887, 0.5925611257553101 433.6514346679052 M1028.2663273294768 433.2865211685499 C736.9353001286588 434.37285770157973, 444.86043747862186 433.8663669941823, -0.029778754711151125 433.4830646713575 M0.03460948865902423 433.8434883930924 C-1.6221874790498216 337.20669936613774, -0.14294812504973042 241.61775195429536, 0.26511542175304886 0.5943634414232968 M0.43466843323987714 433.38025025544687 C0.9339366070857444 305.28399895645526, 1.638479612123052 177.96416981572796, 0.1402549190549254 -0.19819429969400162" stroke="#000000" stroke-width="4" fill="none"></path></g><g transform="translate(456.1642572312124 783.1714143298921) rotate(0 251.1666666666667 61.13051146384481)"><text x="251.1666666666667" y="86.26102292768961" font-family="Virgil, Segoe UI Emoji" font-size="95.68253968253971px" fill="#000000" text-anchor="middle" style="white-space: pre;" direction="ltr">HEADLINE</text></g><g transform="translate(2266.330923897879 743.1714143298921) rotate(0 211.28985507246375 79.66666666666669)"><text x="211.28985507246375" y="112.33333333333334" font-family="Virgil, Segoe UI Emoji" font-size="124.69565217391303px" fill="#000000" text-anchor="middle" style="white-space: pre;" direction="ltr">PHOTO</text></g><g stroke-linecap="round" transform="translate(19.3308425176715 1855.1713736397878) rotate(0 1632.5 267.49999999999994)"><path d="M-1.278860628604889 0.11859661340713501 L3265.777125775814 0.6383243203163147 L3265.5532659888268 533.7025466561316 L-1.370361864566803 534.2624354958533" stroke="none" stroke-width="0" fill="#ced4da"></path><path d="M0.11832716464996339 -0.22943518161773682 C1193.7482460945844 8.754484604001044, 2386.8858066260814 9.070262954831122, 3264.394783616066 -0.00006887912750244141 M-0.0582429051399231 -0.2432740092277527 C928.6600321441889 -10.856615267395972, 1856.7422598302364 -11.026937304139135, 3264.6477610468864 0.27349425554275514 M3264.8671896219253 0.3102399587631226 C3265.7397119873763 192.05197174847123, 3265.5083696717024 385.68879631161684, 3265.353631424904 534.7425115346907 M3264.7532084345817 -0.07565430402755738 C3263.4964450508355 132.24989958703515, 3263.6744514137504 264.0257586538791, 3264.728243148327 534.6250128865241 M3265.2328733682634 534.4303594350814 C2451.641975167394 538.1061832636593, 1636.6540310680866 537.1913463801144, -0.7605432271957397 534.8178800344466 M3264.7193350672724 535.0230322957037 C2576.2267998784782 547.9418815571069, 1888.0380610764028 547.8958515125512, -0.14792758226394653 535.1876765370367 M-0.08071534633636475 534.7895169973373 C1.5238066989183423 356.94730665385714, 2.1676108676195143 178.77987658381457, -0.018834090232849123 -0.34036962985992436 M-0.31806613206863404 535.2297389149664 C1.661779641509056 346.5236310154198, 1.661978387236595 158.09048454165452, 0.24854573011398318 -0.04906166791915894" stroke="#000000" stroke-width="4" fill="none"></path></g><g stroke-linecap="round" transform="translate(760.3309035528277 2533.171404157366) rotate(0 150 42.5)"><path d="M-1.108627736568451 1.4305281043052673 L301.0221229195595 -1.1045499444007874 L298.26963382959366 86.49458831548691 L1.2725768685340881 85.55802100896835" stroke="none" stroke-width="0" fill="#fa5252"></path><path d="M-1.4398826216639278 -0.035534339470028875 C105.69634335708821 -3.0433661772403116, 211.23095033010304 -0.5299536060695051, 301.0773174864179 0.9150828779486416 M0.43586660163682694 0.04527961127573251 C116.41819899538034 -0.9745015241338013, 232.3724465511722 -0.3456410220299958, 299.3083253949775 0.5175489593840241 M301.731736600399 0.6574378609657288 C299.16582717746496 19.095140650868416, 298.18879356235266 33.85077556967735, 300.1307138800621 86.68970447778702 M299.06157091259956 -0.9104779064655304 C299.51430544406173 24.21148283779621, 299.2481072857976 48.89078611135483, 300.2698123753071 85.11316844820976 M301.45029056819357 85.86442527108753 C186.6855786625539 84.32314694791954, 75.78171516523945 84.42211383281105, 0.11832377026951311 85.7130426796683 M299.96130696856113 85.68179141347987 C181.96239475426478 83.67087446666741, 63.61028493248549 83.02707780995775, -0.4525884354858994 84.39847866014773 M0.3585180640220642 83.02546840906143 C-0.9160993799567222 66.64616005122662, 1.0068914189934732 47.94806507229805, 1.0825685858726501 0.668208658695221 M0.7250173389911652 84.3119704425335 C0.12076598852872844 62.375692948699, -0.3854834392666817 41.53386735916137, -0.5993950068950653 0.603622168302536" stroke="#000000" stroke-width="4" fill="none"></path></g><g stroke-linecap="round" transform="translate(765.3309035528277 2688.171404157366) rotate(0 147.5 40)"><path d="M0.77670818567276 0.4808306097984314 L293.17436558008194 -1.1990838646888733 L294.02276760339737 80.01498359441757 L-0.7269138693809509 79.14061111211777" stroke="none" stroke-width="0" fill="#fa5252"></path><path d="M1.0590213800299166 1.0862514241120815 C90.43883680991864 -1.9809046525497733, 177.60350029669215 -1.1921002238922416, 295.6086690331442 0.7280509053971767 M-0.7223111534339189 0.21710459129822252 C78.76205112094297 2.1042832678533614, 155.90838857586184 1.7682394457975448, 294.404740990651 -0.11240828502547741 M295.5730547308922 1.9249148964881897 C297.0991863369942 19.78805524110794, 295.42458192110064 41.61561208963394, 295.5668196082115 80.94930797815323 M294.2737090885639 -0.7885859310626984 C295.22928047776225 24.891306370496753, 294.7029810011387 48.07092401385308, 295.3578965961933 80.02659484744072 M294.26801454282594 80.45442875081801 C214.92401881256794 76.85490229287028, 132.30747184231973 78.65792284506296, -0.7500534168527125 80.45047510270858 M295.13138968594444 79.90887422396577 C200.12954753523243 77.92284423069118, 103.5269630884999 78.53470274921155, -0.09313438310539722 80.05912911937058 M-1.6057057976722717 78.97544056177139 C-1.2577842116355897 50.59076625108719, -2.3800204634666446 22.408789694309235, 1.6701635718345642 0.4657760262489319 M0.6787936985492706 80.05062267184258 C-0.6464374959468842 57.237339943647385, -0.08271011710166931 37.02339193224906, -0.7794382274150848 -0.26267555356025696" stroke="#000000" stroke-width="4" fill="none"></path></g><g stroke-linecap="round" transform="translate(765.3309035528277 2818.171404157366) rotate(0 147.5 40)"><path d="M-0.5177636742591858 -0.9703201651573181 L296.67530769109726 0.7775569558143616 L296.45181411504745 80.51914745569229 L-0.23316627740859985 80.83062320947647" stroke="none" stroke-width="0" fill="#fa5252"></path><path d="M0.4504751027085781 0.3507228457739353 C91.1516640322101 -0.11939305266939981, 182.84909872904564 0.9240772377892793, 296.2099221027925 -0.5384321031625271 M0.059129119370579714 0.43717713725364205 C68.42235278693401 0.46785758472184524, 134.8603266430961 -0.10517455336638099, 294.81138815356934 -0.25711105435478687 M295.46577602624893 -0.5254369378089905 C295.569782435894 16.77638167142868, 296.29379481077194 35.0542134642601, 294.2139850258827 78.27118438482285 M294.73732444643974 0.38835409283638 C295.89633244872095 24.452941924333572, 295.0563752114773 50.24290207028389, 295.0074917972088 79.63654306530952 M294.70087190841843 78.8017952654059 C218.71970650413965 79.78391078656308, 141.8720259140699 79.5596788206741, -0.5788837052671909 81.24770304742646 M295.7027844461299 80.56002313727653 C231.2871935546819 80.3282373020905, 166.781592453395 80.82287970233236, -0.2920616307553053 80.24130181065834 M1.634831964969635 78.97378104925156 C-0.8811548829078675 56.10566681623459, -0.9614637970924378 32.91278451681137, -1.654922902584076 -0.7834306359291077 M0.8776194751262665 79.56968382000923 C0.42140726447105414 60.632962733507156, -0.1794752657413482 39.3532545864582, 0.6775109469890594 0.1309221088886261" stroke="#000000" stroke-width="4" fill="none"></path></g><g stroke-linecap="round" transform="translate(1320.3309035528277 2628.171404157366) rotate(0 225 100)"><path d="M-0.9419693350791931 -1.8017736077308655 L448.5861812233925 1.5538343787193298 L451.1392951607704 198.91670554876333 L0.29354435205459595 201.67941802740103" stroke="none" stroke-width="0" fill="#fa5252"></path><path d="M-0.709465125791192 0.13764893336832523 C125.42395658290135 -1.6464771959700881, 249.62496071578823 -1.7546646542105973, 450.4870640672287 0.7560371953655481 M-0.1677082208482623 0.36251943353003263 C123.28121246452696 1.127443295952648, 247.00659100909408 0.5961233129452168, 450.09651818474754 0.2679359473983645 M450.86958346500074 0.876079051137328 C452.17987075092435 66.06905862596264, 449.3442320372822 132.30927967478698, 450.81574342954315 201.08863947679276 M450.2190085112426 0.6652421900237201 C449.2266134620934 42.68919623495896, 449.15795690292936 84.87637493449625, 449.54107981226605 199.42365389458502 M449.0466911520332 200.17887979507034 C354.8962453969311 198.51425174174008, 260.1782535582107 199.1915615137242, -0.5133701151520014 199.4687954977414 M449.6579634925955 200.12868707708097 C280.1221735545462 200.83365633914147, 110.31632654209496 201.43161767266236, -0.05961063537806272 199.94841566553424 M-1.3617199474061725 198.91748275663514 C-0.28291380850982617 146.66132814559307, 0.4089456670570377 95.44186843823756, -0.17029566523683068 -1.779488647055268 M-0.7383725445778965 200.58919668035352 C-0.7660062775065306 146.3379642855457, -1.537602734009445 93.35207314299616, 0.24352018942898507 -0.4973240734593271" stroke="#000000" stroke-width="4" fill="none"></path></g><g transform="translate(1423.3309035528277 2667.171404157366) rotate(0 142.43478260869574 63)"><text x="142.4347826086957" y="88.00000000000003" font-family="Virgil, Segoe UI Emoji" font-size="98.60869565217396px" fill="#000000" text-anchor="middle" style="white-space: pre;" direction="ltr">skilles</text></g><g stroke-linecap="round" transform="translate(749.3308425176715 3675.171373639788) rotate(0 885 175)"><path d="M1.4863582253456116 -0.002104341983795166 L1768.4213081002235 -1.0366941094398499 L1771.7386432290077 348.04730743169785 L1.5770354866981506 351.0799784064293" stroke="none" stroke-width="0" fill="#12b886"></path><path d="M0.12061593532562256 -0.14818589687347414 C459.2497019350529 0.5969093072414396, 918.0988807082176 1.3333648431301115, 1769.6817937612534 -0.1333505392074585 M0.2525561451911926 -0.06231547594070435 C494.71163495183 -5.511558610200881, 989.50851893425 -6.155927735567092, 1769.682520210743 -0.26690722703933717 M1770.0217599101304 0.046957903649449344 C1768.2382424720558 114.91629090594017, 1768.2433313948807 231.78979419839203, 1771.2264932762612 351.04698640488925 M1770.014079010943 -0.24394677066189047 C1768.480539701081 138.9364807264809, 1767.8732155022112 277.17416946428534, 1770.6338769592558 350.6401962345471 M1770.3702054739 349.7884306192398 C1184.7905346810817 349.66238517403605, 599.9106441617012 348.8192996942997, 0.019225096702575686 350.01464293003085 M1770.0602931141852 350.0089148402214 C1321.0395440042018 346.63253762841225, 872.3792563199996 347.12520463585855, 0.08578940629959107 350.3404314875603 M-1.2598527614775894 350.54322271527207 C-0.6828209897562563 229.4627074500953, -1.2911102864138184 109.32257057664215, -0.8390788037940262 -0.6394739414471388 M-0.16753416930526494 349.68578146555564 C0.7427509396654068 256.96098502783434, 1.0660463017087876 162.66761521749345, -0.5337351632532477 0.24649460247844454" stroke="#000000" stroke-width="1" fill="none"></path></g><g transform="translate(1432.3308425176715 3769.171373639788) rotate(0 202 81.50877192982466)"><text x="202" y="115.01754385964912" font-family="Virgil, Segoe UI Emoji" font-size="127.5789473684211px" fill="#000000" text-anchor="middle" style="white-space: pre;" direction="ltr">footer</text></g><g stroke-linecap="round" transform="translate(2030.3309035528277 2513.171404157366) rotate(0 140 40)"><path d="M-1.9574608206748962 -0.5912747979164124 L278.5742297768592 0.645558774471283 L281.76760250329966 79.94043678045273 L0.8238292336463928 79.06093734502792" stroke="none" stroke-width="0" fill="#fa5252"></path><path d="M1.256370124502778 -0.32376012640058993 C72.07743058724462 1.944407226753473, 147.44244893145617 -0.5094161838719848, 279.70097048974094 -0.34384971374571327 M0.3441241333195567 -0.12280053167790175 C104.02555752524344 -1.4492881084762217, 208.72500761608092 -1.6009791883502604, 279.4676667178818 -0.35552112481564285 M280.7900118231773 -1.3392834067344666 C279.56860009431836 27.83351880311966, 278.7248062252998 57.431675016880035, 278.0262083411216 79.10283428430557 M279.18372419476503 -0.44939449429512024 C278.8916484892368 27.654356449842457, 278.92064686417575 55.08986398577691, 280.55880525708193 80.0885646045208 M281.02546342852645 80.3793184036821 C221.0310490833002 81.52883920142222, 161.8043409398561 83.10609333596277, -0.4065005409520865 80.47386770183503 M280.7367930229946 80.23705297702342 C179.71777828892672 81.59806996160142, 78.75400078111616 80.45575853687876, -0.43721078953772785 80.72187822433979 M1.1781458258628845 78.27716022729874 C1.183474028110504 63.52471858263016, 2.2514233231544494 44.93591219186783, 1.7745718359947205 0.35709530115127563 M0.5983302891254425 80.00138637423515 C1.4643497049808503 50.57747742533684, 0.5286874353885651 21.834934443235397, -0.733070582151413 -0.05007103085517883" stroke="#000000" stroke-width="4" fill="none"></path></g><g stroke-linecap="round" transform="translate(2035.3309035528277 2818.171404157366) rotate(0 135 45)"><path d="M0.8718448281288147 0.8216986060142517 L270.21341091394424 1.558227002620697 L271.1756435036659 91.48756545782089 L-1.7277855277061462 88.06479209661484" stroke="none" stroke-width="0" fill="#fa5252"></path><path d="M-1.2311883982669114 -0.3093167420853376 C53.660303961071854 -1.239167362460798, 108.94301504196824 -2.529083865852064, 269.2503335173634 1.2168166500846147 M0.38780546404606103 0.5019509674124121 C64.57159057463413 2.5309605306943475, 128.38421271995122 1.797557648753506, 270.48974933340986 0.756433026668012 M269.369000852108 1.0401321053504944 C269.37710169255735 21.855965226888657, 269.85526827275754 45.36863672733307, 270.2585787177086 91.85328251123428 M270.4967534840107 0.7874266803264618 C269.2509215205908 25.49082010984421, 269.9788029521704 53.155852943658836, 270.62473371624947 90.5212170779705 M270.6465078797101 90.98954148518669 C198.56658216265188 90.36612920939326, 125.46732681558883 91.94961214423442, -1.4231388982630968 88.89684194205391 M270.46271723966936 89.29810808076614 C168.2612606645084 89.70974705571471, 67.39751586235765 89.63940325348578, -0.38343353439944977 90.61160100415748 M0.7562803626060486 88.4093833565712 C-0.7597228139638902 60.42840626835823, 1.5325306802988052 33.757548809051514, 0.7131189703941345 -1.0341801047325134 M-0.936845988035202 89.50731155276299 C-1.4057599276304247 66.47560620307922, -1.4374610155820848 43.31764963269233, -0.9001133143901825 0.6302010715007782" stroke="#000000" stroke-width="4" fill="none"></path></g><g stroke-linecap="round" transform="translate(2025.3309035528277 2658.171404157366) rotate(0 142.5 45)"><path d="M-1.8692077994346619 -0.5296865105628967 L284.50244861841196 -1.3027406334877014 L284.4068809151649 91.54865592718124 L-0.8297390341758728 89.66708129644394" stroke="none" stroke-width="0" fill="#fa5252"></path><path d="M-0.23060258715581897 0.3677954014639855 C103.93078298115108 1.672061558963454, 207.2342258643994 0.5720241169010758, 284.63614224513475 1.3908589034018517 M0.3454728277537823 -0.12676349717593194 C60.05776388005995 -2.3192038294070363, 118.97457077098916 -1.5784424698260426, 285.35694298619336 -0.006825457495450975 M285.2305063605308 -1.2274708151817322 C286.45900257527825 21.00377807021141, 285.0467272609472 43.6564747095108, 286.63625854253763 89.8361068367958 M285.93524816632265 -0.6357634365558624 C283.5977729648351 29.716346919536587, 283.9705823749303 59.80841699242591, 284.4042623341083 89.1471297442913 M285.6230907661461 90.16182864240027 C226.33482676329942 91.8335767015077, 166.43447385664413 89.63191808073438, -1.4674604123053552 91.19757360820532 M285.3572242983195 89.92306418435788 C225.76463926226396 90.28557499357645, 165.46691392420647 89.51034602845041, 0.4979620793178082 90.66092274991726 M-1.0090451836585999 90.37993961572647 C-0.09132386147975924 57.397792369127274, 1.2440814882516862 27.325374126434326, -1.735251009464264 1.69852215051651 M-0.9320060908794403 89.13398715853691 C0.5937200337648391 57.204175233840935, 0.6464000493288039 22.988932400941835, 0.7641198933124542 0.831370085477829" stroke="#000000" stroke-width="4" fill="none"></path></g><g stroke-linecap="round" transform="translate(19.3308425176715 2970.171373639788) rotate(0 1632.5 285)"><path d="M1.8630557656288147 -0.4351373314857483 L3264.4858718514442 -1.479858934879303 L3266.729354441166 571.6682295203208 L-0.8928245902061462 568.4642061591147" stroke="none" stroke-width="0" fill="#ced4da"></path><path d="M-0.09395468235015869 0.7135282754898071 C1092.0616624385118 7.668048192858696, 2184.8170598328115 8.321837713122367, 3265.4144399404527 0.6303655862808228 M-0.2849705576896668 0.18620976209640505 C806.6824456065895 -10.70853757798672, 1614.0603231966497 -10.63930807054043, 3265.3358382344245 0.04741390943527222 M3264.644865965843 -0.27496278285980225 C3265.0219595468043 158.93758388161658, 3266.500726178884 318.8288658976554, 3265.6631971120833 570.3877973794936 M3264.9344435811045 0.32610348463058475 C3264.757755292654 125.73155103325841, 3264.905157865286 251.721654343605, 3265.354385674 570.1508696436881 M3264.9899121999742 569.451804947853 C2099.4059890717267 560.4460698586702, 932.1015337169171 560.1671933633088, -0.004476380348205566 569.920644211769 M3264.9907839894295 569.9339537501334 C2360.1718863874676 563.0430899375676, 1455.8361064612866 563.0509180778264, -0.2725624918937683 569.9359537959098 M0.12477777004241944 570.7477377176284 C-0.9994916379451753 452.82382134795176, -1.1950902402400971 335.0239528298377, -0.029986786842346194 0.5078123331069947 M-0.0014962077140808106 569.776557433605 C-0.7153437316417695 355.772908514738, -0.47177416682243356 141.11875910758965, -0.018053138256073 -0.24303675889968873" stroke="#000000" stroke-width="4" fill="none"></path></g><g stroke-linecap="round" transform="translate(404.3308425176715 3065.171373639788) rotate(0 207.5 175)"><path d="M-1.5508561730384827 -1.3783287405967712 L413.69336265325546 -0.6913647055625916 L414.13429778814316 349.68853145837784 L1.1020273566246033 349.9625316262245" stroke="none" stroke-width="0" fill="#fab005"></path><path d="M-0.7963833339645863 -0.7666018045432568 C115.71271805764177 -1.0905542117912232, 230.68772593826176 -1.53000963169021, 413.92724566389154 -0.4844622908027172 M0.33732348755609987 -0.08110017950212955 C92.3211702565676 0.6532792581553637, 184.1821592986504 0.23945414931823603, 414.4913166139332 -0.1340968302322626 M414.47645308416094 0.6781615319603681 C416.3423194899827 128.10932209049116, 414.3842147986642 255.51727567331397, 415.2324314750491 348.89387609694376 M415.60882528776403 0.2854016566625237 C413.8289674112434 70.19003088382394, 414.12606194894977 141.03708150997215, 414.53564832471125 349.5939261373849 M415.06085426562953 349.79276820304034 C307.49890746498085 347.5552395333333, 201.2399831377208 347.20127048013353, -0.01393287567448616 349.04503831687856 M415.18650232215845 349.9789289108223 C262.74362143872895 351.8959881331322, 110.5026384611832 352.7379134542267, 0.2441187407718897 349.46183979988706 M-0.1345499030445814 349.4819981350106 C1.3289621716653404 221.5024359818219, 1.7779564068605003 95.41652337636265, 0.28701001738464826 -0.1589148256407976 M-0.27611049847942587 349.82685189963206 C2.365765655928522 215.33224923322732, 2.125132747956186 81.65439326659066, 0.16543382643169163 0.3213916841874718" stroke="#000000" stroke-width="4" fill="none"></path></g><g stroke-linecap="round" transform="translate(1039.3308425176715 3070.171373639788) rotate(0 195 170)"><path d="M-1.184528887271881 1.6060824990272522 L389.20831054449076 0.3582931160926819 L389.1670069098472 338.5905452370644 L0.20913833379745483 339.31651073694235" stroke="none" stroke-width="0" fill="#fab005"></path><path d="M-0.0356487898234129 1.0457304340361357 C127.21539938145456 0.02814260130607471, 256.8095793516827 0.40142603746711597, 390.1887302350064 -0.6676660035744907 M-0.27520642335325485 0.341570315037787 C147.63365380584898 1.1286044304515064, 296.1193701072558 1.5153744160758198, 390.38598494481647 -0.48093676129239804 M391.12309595781784 0.5974518284350632 C390.7515689924136 130.97590595034518, 391.18632252595626 262.3682488428852, 390.436604531102 339.4161688275997 M390.23131519361164 -0.10278917052417991 C392.36572560702285 102.26446411846776, 392.28966627564586 204.48575143913695, 389.3840380569024 339.5754887390428 M390.9398751358739 341.0387237696914 C249.91342391429527 342.78088847366814, 111.87946140572936 342.2596685204249, 0.659080114072919 339.9227784138679 M389.8899307983073 340.5485850945369 C246.82684637220945 339.81879168874576, 104.14353249878491 339.6633984921191, 0.007962164401948453 340.5420818464538 M1.1105566165322063 340.6036846261417 C2.0238993388021345 259.4399687807743, 0.18040383254984615 177.33975155759921, -0.8277226795684097 -0.34527344671523563 M-0.37876788031333675 340.603865394917 C-1.6223662983708855 267.0313926890283, -2.147085346178579 194.47563652653548, 0.6360942086854575 0.29422745572894804" stroke="#000000" stroke-width="4" fill="none"></path></g><g stroke-linecap="round" transform="translate(1704.3308425176715 3060.171373639788) rotate(0 207.5 177.5)"><path d="M-0.20760959386825562 -1.522705614566803 L416.47727924585354 1.7464765906333923 L415.17150646448147 353.7885469794272 L1.9512439370155334 355.4960836768149" stroke="none" stroke-width="0" fill="#fab005"></path><path d="M-0.10367131154704089 0.17700031278681747 C122.46975360045079 -0.5722393098971423, 245.72941651952868 1.0924049985516484, 415.3013755151819 -0.0008266603043079373 M0.475702716455817 0.4634740387531517 C90.25635368271962 -0.6037895169231595, 179.12397653411526 -1.3749803240406213, 414.59590810845043 -0.3051289958804844 M415.1674145422829 -0.578149466007948 C416.41527483972203 86.7111182397711, 416.43349589414254 176.34102228466148, 415.79477368210684 355.7773689741241 M414.89140230837415 -0.08377247636377813 C414.4925214254148 103.3124598412603, 415.4211986017568 205.7874403467506, 414.93488428661897 354.4541593774836 M414.71878373607575 355.372892107205 C259.5580788925441 355.8124518604024, 102.8219588217175 354.1091448880895, -0.7071656808478829 353.96010779182876 M415.2959336226983 355.5370132642245 C291.43672675412887 353.59975814346006, 169.0308707628788 353.91645242594217, -0.1657182736374139 355.22245324838974 M0.4745645644843579 354.30561222443686 C0.36231584984514087 246.5243458610498, 0.5494790844413933 137.86809685239905, 0.08490274483561516 -0.3281640400207043 M0.09954135550081732 355.5102113799517 C1.3631740351845323 262.0877344011109, 0.5575896331574021 168.8505494773238, 0.19350234863817695 -0.1520888865619898" stroke="#000000" stroke-width="4" fill="none"></path></g><g stroke-linecap="round" transform="translate(2379.3308425176715 3045.171373639788) rotate(0 185 180)"><path d="M1.3779920935630798 1.0563483834266663 L368.992816388607 -1.760105550289154 L371.9449819922447 358.2257476449013 L-0.9354329705238342 361.71507984399796" stroke="none" stroke-width="0" fill="#fab005"></path><path d="M-1.1839033360008 -0.04169209462320804 C136.93290315280117 0.681306553443986, 274.2955343424088 2.7121972968407446, 368.93832342801056 0.16540949884831901 M0.25326004061144586 0.04695235510522126 C126.11222492068119 0.3548622492170394, 252.95375537905903 0.3644069333963454, 369.72922212525003 0.3495719447525143 M369.67609848158014 -0.48542764514863485 C371.7682462322226 97.51118127700485, 372.46060202832325 195.89087720758118, 370.9306362019132 359.9644065538908 M369.84988659546883 -0.06573812463122605 C368.2351933040862 89.7196966735732, 369.2703569650874 178.55815940408962, 369.6164018812068 360.6178477339484 M370.5453598627373 360.41027819211234 C248.59090343304027 360.19622496797666, 128.4956722119614 360.22408573114876, -0.5095726630462407 360.54323809491 M369.97948502638644 360.0102166998356 C285.4047493355142 359.48607545809307, 201.2573821565439 359.6631352007441, -0.5081594804056286 359.6977613398979 M-1.090855836847901 359.7622275149542 C1.8503822594731325 262.137658378163, 1.6623066280835146 164.8640171951071, 0.29301385101449484 -1.0044936793168782 M-0.6323216639572977 360.3195871172778 C-1.1244738086303827 280.80386439007634, -1.691812849899685 201.16864681003065, -0.09248161003082989 0.48650220180958503" stroke="#000000" stroke-width="4" fill="none"></path></g><g transform="translate(460.7004687702191 3197.171404157366) rotate(0 140.5 40.5)"><text x="140.5" y="57" font-family="Virgil, Segoe UI Emoji" font-size="63.39130434782612px" fill="#000000" text-anchor="middle" style="white-space: pre;" direction="ltr">REVIEWS</text></g><g transform="translate(1095.4178600745668 3192.171404157366) rotate(0 138.5 40)"><text x="138.5" y="56" font-family="Virgil, Segoe UI Emoji" font-size="62.364130434782595px" fill="#000000" text-anchor="middle" style="white-space: pre;" direction="ltr">REVIEWS</text></g><g transform="translate(1800.3309035528277 3187.171404157366) rotate(0 123.47826086956513 35.5)"><text x="123.47826086956518" y="50.99999999999994" font-family="Virgil, Segoe UI Emoji" font-size="55.56521739130432px" fill="#000000" text-anchor="middle" style="white-space: pre;" direction="ltr">REVIEWS</text></g><g transform="translate(2420.3309035528277 3177.171404157366) rotate(0 140.86956521739125 40.5)"><text x="140.8695652173913" y="57" font-family="Virgil, Segoe UI Emoji" font-size="63.39130434782611px" fill="#000000" text-anchor="middle" style="white-space: pre;" direction="ltr">REVIEWS</text></g><g stroke-linecap="round" transform="translate(99.3308425176715 1390.1713736397878) rotate(0 1545 175.00000000000009)"><path d="M-0.7403320670127869 -0.5692067742347717 L3089.819800913334 1.6098875403404236 L3088.881459772587 348.94468253850954 L-1.2291836142539978 348.07775634527223" stroke="none" stroke-width="0" fill="#12b886"></path><path d="M-0.2894037485122681 -0.2083444356918335 C795.9523418247701 1.133020905256271, 1591.1540239214899 1.140643433332443, 3090.407882475853 -0.7050081014633179 M-0.18046501874923707 -0.02692004442214966 C1140.6996452391147 -12.126004101037978, 2281.75388879776 -12.16982390999794, 3089.8136714100838 0.13263615369796752 M3088.8445352400977 1.0130387647830243 C3088.3308673758347 112.8595267410118, 3088.377094134231 223.00976330818298, 3089.4008617379427 349.350136226106 M3090.367299222699 0.45556689127010086 C3090.3456680368245 100.36043457579088, 3089.603207833255 199.29400106933267, 3090.6426223444123 350.31858313030494 M3090.602324461937 349.6041021585466 C1965.8864696204662 355.80647560238856, 841.060238802433 355.35799461483975, 0.2921399831771851 349.4891279459001 M3089.6987807393075 349.8450671076776 C1971.411042231321 357.42305077672023, 853.745093274116 357.11704835057276, 0.3486056447029114 350.34307545423525 M-0.22832872472298135 348.96415289696245 C2.140012249248832 263.77208547889256, 1.819132420975059 174.60131100332757, 0.28285326311194886 -0.6237683231114146 M-0.5854599418024418 350.5629772543188 C-2.6091945271934565 213.7485474452596, -2.158260798756033 77.89617570694011, -0.5078126490682957 -0.25922717571407544" stroke="#000000" stroke-width="4" fill="none"></path></g><g stroke-linecap="round" transform="translate(3589.3308425176715 520.1713736397879) rotate(0 150 130)"><path d="M-1.9918331503868103 0.2219976782798767 L300.0499282479286 -1.913544237613678 L299.3061061501503 261.0499739050865 L-0.7096275687217712 261.56763023138046" stroke="none" stroke-width="0" fill="#12b886"></path><path d="M-0.9972638971689938 0.3589317554930448 C62.97076276859487 -0.21419498973649737, 125.03640531143392 -1.1603868870715497, 300.33075032346164 0.37189581739413735 M0.5959963333224654 -0.7177901912717222 C104.9486611414947 1.5257232015665767, 209.90484785780902 0.29024278753268706, 300.31583399031064 0.4402862834234833 M300.9403999708015 0.7762865578869581 C297.1886838676132 103.28833617320527, 299.19847546200026 208.4327446116437, 299.33416178130636 258.7573614405583 M300.5323777187876 0.2970795967479348 C299.39566717426567 97.6319238193069, 299.1205621369903 195.69854846331364, 300.0625162495398 260.2501295353256 M299.9141254591924 259.3277286761092 C237.10143984261524 258.94991651503915, 172.5324560171758 260.7395235095498, -0.5503667105578184 259.0235466635474 M300.39042455058853 260.52768145980934 C234.02342113304513 260.26926539441706, 167.65984160411256 260.73154140750717, 0.024732127376496788 260.0418885908766 M1.376767532790303 259.97015932072725 C0.5018061936545015 196.41785882242095, 1.5129097653364778 132.7886572956723, 1.274274025179982 -0.5042025370799302 M0.15973272923606632 260.3862649541584 C-0.6404830703658103 185.26411676763684, 0.10170264003953944 110.80343949084428, -0.30812687196975946 -0.6243648522590994" stroke="#000000" stroke-width="4" fill="none"></path></g><g stroke-linecap="round" transform="translate(3599.3308425176715 980.1713736397879) rotate(0 155 140)"><path d="M0.691493570804596 -0.9138436913490295 L309.851174890995 0.06316322088241577 L310.9518352150917 278.0376676917076 L0.257146418094635 280.71474784612656" stroke="none" stroke-width="0" fill="#fa5252"></path><path d="M-1.3712955528241395 -0.49726237404239176 C62.87902476871098 -0.563996380992955, 125.37657692020215 -0.715543764297551, 311.0978730860423 -0.49421565286242963 M-0.19017145552438497 0.21273038241285086 C65.69184343934256 1.6083664964922249, 132.5135770413018 1.5722220498693764, 309.5844101325436 0.28975201324743033 M309.0901221599489 1.0527428955262899 C307.12560033256676 63.55530481979311, 307.7184603005042 129.71250762235582, 309.10934610673013 279.8563179688257 M310.3725235776326 0.0123359035256505 C312.6282632677162 98.59752967888384, 311.867791452235 197.65342135982067, 310.2524956409547 280.3333445230344 M308.69042891332424 280.7067870742379 C245.09883105883776 279.0615463071067, 179.53891737024486 279.2433804772689, -0.2002597683659792 279.1122092058183 M310.059794999939 279.79491405664913 C223.5730793323632 279.6644185927891, 137.61878126641088 279.322317183886, 0.36104246117597816 279.53632342564293 M0.6698547754961252 281.1729879734606 C1.6577515603368282 215.2890288226694, 1.305519197952032 147.78014535486162, -0.9004245186895131 0.46253833850800985 M-0.4306080868914723 280.52285766173867 C1.8503331672807333 198.87922000422031, 2.346256745476305 117.44724316243678, 0.2957732824608683 -0.4450023314234614" stroke="#000000" stroke-width="4" fill="none"></path></g><g stroke-linecap="round" transform="translate(3629.3308425176715 1460.1713736397878) rotate(0 150 165)"><path d="M-1.2457413077354431 -1.1786656975746155 L300.62811237573624 -0.38751083612442017 L298.46442943811417 330.4734072089195 L-0.16061824560165405 328.7966665625572" stroke="none" stroke-width="0" fill="#fab005"></path><path d="M0.40445064472782605 0.017615656894564628 C92.20752250800145 1.4510911408005356, 184.057454650694 -0.24696879278939954, 299.6033432299825 0.7539824850310086 M0.4669844062766432 0.3467153798475861 C102.70232575772279 -1.976155381834149, 206.43417497238917 -1.614380569732785, 299.3232636475543 0.04064309544855356 M300.4453955305189 0.6510936773115396 C301.8739170445803 80.99148348607123, 300.74460688010964 161.40097800247253, 299.3755797441381 329.898309291268 M300.08785278800997 0.24419002788990735 C301.61746242251616 100.46480179474324, 300.5090391507171 200.14740192554922, 299.82070608784704 329.85470646514386 M299.22382168150915 328.55343612755956 C217.81560663915073 330.06119984538617, 135.59205854027377 331.47990795207943, -1.1670456939295528 330.1155643265456 M299.85157539466087 329.6782556758261 C220.3751634639949 329.1373708980105, 140.09941900201792 329.51691412551713, 0.15622665339463948 330.0212900126429 M-1.2353382446962595 331.07247026685775 C1.1241376500119267 249.07294345061362, -0.4871955747614801 167.13451403732358, 0.09228303801476954 -0.4562719890588522 M-0.6670481121632457 330.27853776796786 C-1.646317024835318 252.95096436264484, -1.0250373699986635 175.92214266111822, 0.28329084258109327 -0.6337977680447697" stroke="#000000" stroke-width="4" fill="none"></path></g><g transform="translate(4017.3308425176715 584.1713736397879) rotate(0 368.08695652173947 83)"><text x="368.08695652173935" y="117.00000000000003" font-family="Virgil, Segoe UI Emoji" font-size="129.91304347826096px" fill="#000000" text-anchor="middle" style="white-space: pre;" direction="ltr">MUST HAVE</text></g><g transform="translate(4034.8308425176715 1074.1713736397878) rotate(0 476.3478260869565 88)"><text x="476.34782608695656" y="124" font-family="Virgil, Segoe UI Emoji" font-size="137.73913043478262px" fill="#000000" text-anchor="middle" style="white-space: pre;" direction="ltr">SHOULD HAVE</text></g><g transform="translate(4071.3308425176715 1574.1713736397878) rotate(0 418.217391304348 81.51694915254234)"><text x="418.21739130434787" y="115.03389830508465" font-family="Virgil, Segoe UI Emoji" font-size="127.59174649963151px" fill="#000000" text-anchor="middle" style="white-space: pre;" direction="ltr">COULD HAVE</text></g><g transform="translate(1160.3308425176715 1484.1713736397878) rotate(0 394 93.5)"><text x="394" y="131" font-family="Virgil, Segoe UI Emoji" font-size="148.05298013245036px" fill="#000000" text-anchor="middle" style="white-space: pre;" direction="ltr">About (bio)</text></g><g stroke-linecap="round" transform="translate(1255.3309035528277 1938.171404157366) rotate(0 322.5 182.49999999999994)"><path d="M-0.30577908642590046 -0.26228086464107037 L644.4403829108924 -1.2765083145350218 L646.6671490799636 363.95323892123986 L-0.20403282530605793 364.13148965127755" stroke="none" stroke-width="0" fill="#fab005"></path><path d="M-0.7511654786765576 -0.3088211961090565 C130.48856904907151 0.8863190946169198, 261.1595604432747 1.5846381721086802, 645.1266971893608 0.6000276379287244 M-0.06248138882219792 -0.03911983631551266 C252.33403684580702 0.6084801520965993, 505.71772816088054 0.5469417299889028, 645.2212433364242 -0.3629074659198523 M645.0011661230402 -1.2056587272598598 C644.6781086214526 81.46538383096406, 646.2171131398704 163.00962155985752, 644.082372866282 364.31858029703824 M644.8574905070392 0.3958812890682147 C645.2155994911838 99.95337241477584, 645.3792879652016 199.1307825883274, 645.5840000343173 364.93084053433097 M645.4837136812508 365.5431076578795 C441.83686155425386 364.83242836354293, 238.2437760593369 365.80989325402294, -0.5227116756141186 365.1847064308821 M645.2351512815803 364.7875131640582 C389.7403548284434 367.12766417438155, 134.50546094793822 366.71804454499846, -0.22849414087831976 364.9593256626277 M-0.1980330208549649 365.0138423099915 C0.9078956254140144 273.0573647782044, -1.0648240200780632 181.01671168759464, 0.7371863869070859 -0.04279760806249083 M0.21566318226588524 364.8270551565431 C-2.1120350488319297 286.3056345095862, -2.304577368103256 207.30820064240677, 0.10417550155151638 0.29184339324592806" stroke="#000000" stroke-width="4" fill="none"></path></g><g transform="translate(1431.8309035528277 2082.171404157366) rotate(0 133.5 70.5862068965518)"><text x="133.50000000000003" y="99.17241379310357" font-family="Virgil, Segoe UI Emoji" font-size="110.48275862068972px" fill="#000000" text-anchor="middle" style="white-space: pre;" direction="ltr">video</text></g></svg>